<svg width="19" height="32" viewBox="0 0 19 32" fill="white" xmlns="http://www.w3.org/2000/svg">
<path d="M4.95455 16.0109L18.3182 28.4141C18.7727 28.8359 18.9924 29.3281 18.9773 29.8906C18.9621 30.4531 18.7273 30.9453 18.2727 31.3672C17.8182 31.7891 17.2879 32 16.6818 32C16.0758 32 15.5455 31.7891 15.0909 31.3672L1.09091 18.4156C0.727273 18.0781 0.454545 17.6984 0.272727 17.2765C0.0909091 16.8546 0 16.4328 0 16.0109C0 15.589 0.0909091 15.1671 0.272727 14.7453C0.454545 14.3234 0.727273 13.9437 1.09091 13.6062L15.0909 0.612401C15.5455 0.190525 16.0833 -0.0133821 16.7045 0.000680446C17.3258 0.014743 17.8636 0.232712 18.3182 0.654589C18.7727 1.07647 19 1.56865 19 2.13116C19 2.69366 18.7727 3.18585 18.3182 3.60772L4.95455 16.0109Z" fill="white"/>
</svg>
