<svg width="15" height="14" viewBox="0 0 15 14" fill="none" xmlns="http://www.w3.org/2000/svg">
<path d="M7.55107 8.3915L2.65107 13.2915C2.46774 13.4748 2.23441 13.5665 1.95107 13.5665C1.66774 13.5665 1.43441 13.4748 1.25107 13.2915C1.06774 13.1082 0.976074 12.8748 0.976074 12.5915C0.976074 12.3082 1.06774 12.0748 1.25107 11.8915L6.15107 6.9915L1.25107 2.0915C1.06774 1.90817 0.976074 1.67484 0.976074 1.3915C0.976074 1.10817 1.06774 0.874837 1.25107 0.691504C1.43441 0.508171 1.66774 0.416504 1.95107 0.416504C2.23441 0.416504 2.46774 0.508171 2.65107 0.691504L7.55107 5.5915L12.4511 0.691504C12.6344 0.508171 12.8677 0.416504 13.1511 0.416504C13.4344 0.416504 13.6677 0.508171 13.8511 0.691504C14.0344 0.874837 14.1261 1.10817 14.1261 1.3915C14.1261 1.67484 14.0344 1.90817 13.8511 2.0915L8.95107 6.9915L13.8511 11.8915C14.0344 12.0748 14.1261 12.3082 14.1261 12.5915C14.1261 12.8748 14.0344 13.1082 13.8511 13.2915C13.6677 13.4748 13.4344 13.5665 13.1511 13.5665C12.8677 13.5665 12.6344 13.4748 12.4511 13.2915L7.55107 8.3915Z" fill="#1C1B1F"/>
</svg>
