<?xml version="1.0" encoding="UTF-8"?>
<svg id="Layer_2" data-name="Layer 2" xmlns="http://www.w3.org/2000/svg" viewBox="0 0 36 24">
  <defs>
    <style>
      .cls-1 {
        fill: #fff;
      }
      
    </style>
  </defs>
  <g id="reply">
    <g>
      <path class="cls-1" d="m34,18H.97c-.54,0-.97-.46-.97-1.03V1.03C0,.46.43,0,.97,0s1.03.43,1.03,1v15h32c.54,0,1,.39,1,.97s-.46,1.03-1,1.03Z"/>
      <path class="cls-1" d="m29.13,24c-.27,0-.54-.09-.76-.28-.46-.39-.49-1.06-.07-1.5l5.06-5.23-5.06-5.23c-.42-.43-.39-1.1.07-1.5.46-.39,1.17-.36,1.59.07l5.75,5.94c.39.4.39,1.02,0,1.43l-5.75,5.94c-.22.23-.53.35-.83.35Z"/>
    </g>
  </g>
</svg>