<?xml version="1.0" encoding="UTF-8"?>
<svg id="Layer_2" data-name="Layer 2" xmlns="http://www.w3.org/2000/svg" viewBox="0 0 36 36">
  <defs>
    <style>
      .cls-1 {
        fill: none;
        stroke: #fff;
        stroke-miterlimit: 10;
        stroke-width: 2px;
      }

      .cls-2 {
        fill: #fff;
        stroke-width: 0px;
      }
    </style>
  </defs>
  <g id="global">
    <g>
      <path class="cls-2" d="m18,2c8.82,0,16,7.18,16,16s-6.58,15.42-15,15.95c-.04,0-.09,0-.13,0-.15,0-.3.01-.45.03-.06,0-.12,0-.18.01-.08,0-.16.01-.24.01-8.82,0-16-7.18-16-16S9.18,2,18,2m0-2C8.06,0,0,8.06,0,18s8.06,18,18,18c.22,0,.43-.02.64-.03.07-.02.15-.02.23-.02.04,0,.08,0,.12,0,9.48-.52,17.01-8.34,17.01-17.95S27.94,0,18,0h0Z"/>
      <line class="cls-1" x1="2" y1="18" x2="34" y2="18"/>
      <path class="cls-1" d="m18,34V2s-9,2.42-9,15.52,9,16.48,9,16.48Z"/>
      <path class="cls-1" d="m18,34V2s10,2.42,10,15.52-10,16.48-10,16.48Z"/>
      <path class="cls-1" d="m4,8s8,2,14,2,14-2,14-2"/>
      <path class="cls-1" d="m4,28s8-2,14-2,14,2,14,2"/>
    </g>
  </g>
</svg>