<svg width="108" height="108" viewBox="0 0 108 108" fill="none" xmlns="http://www.w3.org/2000/svg">
<g clip-path="url(#clip0_98_814)">
<path d="M79.2601 44.79C81.9901 46.29 85.0801 47.16 88.3801 47.16C99.2101 47.16 108.03 37.92 108.03 26.58C108.03 15.24 99.2101 6 88.3801 6C77.5501 6 68.7301 15.24 68.7301 26.58C68.7301 32.01 70.7701 36.93 74.0401 40.62L72.1501 43.02L60.8401 34.14C59.5501 33.12 57.7201 33.24 56.5501 34.47L46.7401 44.76C45.4501 46.11 45.4501 48.27 46.7401 49.62C48.0301 50.97 50.1001 50.97 51.3601 49.62L59.1601 41.43L67.9501 48.33L30.1501 96.42C29.0101 97.89 29.1901 100.05 30.6001 101.25C31.2001 101.79 31.9501 102.03 32.6701 102.03C33.6301 102.03 34.5601 101.61 35.1901 100.77L53.6101 77.34L65.9101 87.63L50.8501 95.52C49.2301 96.36 48.5701 98.43 49.3801 100.11C49.9501 101.31 51.1201 102 52.3201 102C52.8001 102 53.3101 101.88 53.7901 101.64L73.4401 91.35C74.4301 90.84 75.1201 89.82 75.2401 88.65C75.3601 87.48 74.9101 86.34 74.0401 85.62L57.8401 72.03L68.7301 58.17V60.87C68.7301 62.76 70.2001 64.29 72.0001 64.29H88.3501C90.1501 64.29 91.6201 62.76 91.6201 60.87C91.6201 58.98 90.1501 57.45 88.3501 57.45H75.2701V49.86L79.2601 44.79ZM88.3801 12.87C95.6101 12.87 101.46 19.02 101.46 26.58C101.46 34.14 95.5801 40.29 88.3801 40.29C81.1801 40.29 75.3001 34.14 75.3001 26.58C75.3001 19.02 81.1801 12.87 88.3801 12.87Z" fill="white"/>
<path d="M9.81004 33H49.08C50.88 33 52.35 31.65 52.35 30C52.35 28.35 50.88 27 49.08 27H9.81004C8.01004 27 6.54004 28.35 6.54004 30C6.54004 31.65 8.01004 33 9.81004 33Z" fill="white"/>
<path d="M17.4599 24H56.7299C58.5299 24 59.9999 22.65 59.9999 21C59.9999 19.35 58.5299 18 56.7299 18H17.4599C15.6599 18 14.1899 19.35 14.1899 21C14.1899 22.65 15.6599 24 17.4599 24Z" fill="white"/>
<path d="M45.81 39C45.81 37.35 44.34 36 42.54 36H3.27C1.47 36 0 37.35 0 39C0 40.65 1.47 42 3.27 42H42.54C44.34 42 45.81 40.65 45.81 39Z" fill="white"/>
</g>
<defs>
<clipPath id="clip0_98_814">
<rect width="108" height="108" fill="white"/>
</clipPath>
</defs>
</svg>
