<?xml version="1.0" encoding="UTF-8"?>
<svg id="Layer_2" data-name="Layer 2" xmlns="http://www.w3.org/2000/svg" viewBox="0 0 36 36">
  <defs>
    <style>
      .cls-1, .cls-2 {
        stroke-width: 0px;
      }

      .cls-2 {
        fill: #fff;
      }
    </style>
  </defs>
  <g id="free">
    <g>
      <g>
        <path class="cls-2" d="m24,21.82c0,1.7-.59,2.98-1.77,3.86s-2.82,1.32-4.93,1.32c-1.11,0-2.1-.09-2.96-.26-.49-.1-.96-.23-1.4-.38-.56-.2-.94-.72-.94-1.32v-.04c0-.93.91-1.61,1.79-1.32.22.07.45.15.69.22.95.28,1.89.42,2.82.42,1.13,0,1.97-.2,2.5-.61.53-.41.8-.96.8-1.64,0-.39-.1-.74-.3-1.05-.2-.31-.58-.63-1.12-.95-.54-.32-1.33-.7-2.35-1.13-1.02-.43-1.89-.88-2.62-1.34s-1.28-1-1.65-1.63c-.37-.62-.56-1.39-.56-2.32,0-1.48.58-2.63,1.73-3.45s2.7-1.22,4.62-1.22c1,0,1.94.1,2.82.31.4.09.8.2,1.19.33.77.25,1.14,1.13.81,1.87h0c-.29.67-1.06.98-1.74.73-.31-.11-.61-.21-.92-.3-.72-.2-1.46-.3-2.23-.3-.95,0-1.68.17-2.18.5s-.75.79-.75,1.37c0,.41.11.76.34,1.06s.62.6,1.19.9,1.34.67,2.31,1.1c.98.43,1.83.87,2.55,1.32s1.28.99,1.67,1.61c.38.62.58,1.39.58,2.32Z"/>
        <path class="cls-2" d="m17.3,27.5c-1.13,0-2.16-.09-3.05-.27-.52-.1-1.01-.24-1.47-.4-.76-.27-1.28-.99-1.28-1.79,0-.64.29-1.22.79-1.57.49-.35,1.1-.44,1.66-.25.21.07.44.14.67.21.9.26,1.8.4,2.68.4,1.02,0,1.75-.17,2.19-.51.41-.32.6-.71.6-1.25,0-.29-.07-.54-.22-.78-.11-.17-.37-.44-.96-.79-.51-.31-1.28-.67-2.29-1.1-1.04-.44-1.95-.9-2.69-1.38-.79-.5-1.4-1.1-1.81-1.79-.42-.7-.63-1.56-.63-2.57,0-1.65.66-2.94,1.95-3.85,1.24-.87,2.89-1.32,4.91-1.32,1.03,0,2.02.11,2.93.32.42.1.83.21,1.23.35.5.16.9.53,1.11,1.01.22.49.22,1.05,0,1.53-.4.9-1.43,1.34-2.37,1-.3-.11-.59-.2-.89-.29-.66-.19-1.37-.28-2.09-.28-.85,0-1.49.14-1.9.41-.36.24-.53.54-.53.95,0,.3.08.55.24.76.18.24.52.5,1.02.76.55.29,1.3.65,2.28,1.08,1,.44,1.88.89,2.61,1.35.79.49,1.4,1.09,1.83,1.77.43.7.65,1.57.65,2.58,0,1.85-.66,3.29-1.97,4.26-1.26.94-3.02,1.42-5.23,1.42Zm-3.94-3.38c-.17,0-.34.06-.49.16-.24.17-.37.43-.37.72,0,.42.24.75.61.88.42.15.87.27,1.33.36.83.16,1.79.25,2.86.25,1.99,0,3.54-.41,4.63-1.22,1.05-.79,1.57-1.92,1.57-3.46,0-.83-.17-1.52-.5-2.05-.34-.55-.85-1.04-1.5-1.45-.69-.43-1.53-.86-2.49-1.28-1-.44-1.77-.81-2.34-1.11-.64-.34-1.08-.68-1.35-1.04-.29-.39-.44-.85-.44-1.37,0-.74.33-1.36.97-1.78.59-.39,1.39-.58,2.45-.58.82,0,1.61.11,2.36.32.32.09.64.19.95.31.45.16.93-.04,1.12-.46.1-.23.1-.49,0-.72-.1-.23-.28-.39-.51-.47-.38-.12-.76-.23-1.14-.32-.84-.2-1.75-.29-2.71-.29-1.81,0-3.27.38-4.33,1.13-1.02.72-1.52,1.72-1.52,3.04,0,.83.17,1.52.49,2.06.33.55.83,1.04,1.49,1.46.7.44,1.55.88,2.54,1.3,1.06.45,1.85.83,2.41,1.16.61.36,1.03.72,1.28,1.1.26.4.39.84.39,1.32,0,.85-.33,1.53-1,2.04-.63.48-1.54.71-2.8.71-.98,0-1.97-.15-2.96-.44-.24-.07-.48-.14-.71-.22-.09-.03-.18-.04-.27-.04Z"/>
      </g>
      <path class="cls-2" d="m18,2c8.82,0,16,7.18,16,16s-7.18,16-16,16S2,26.82,2,18,9.18,2,18,2m0-2C8.06,0,0,8.06,0,18s8.06,18,18,18,18-8.06,18-18S27.94,0,18,0h0Z"/>
      <path class="cls-2" d="m18,33c-.55,0-1-.45-1-1V4c0-.55.45-1,1-1s1,.45,1,1v28c0,.55-.45,1-1,1Z"/>
      <g>
        <polyline class="cls-1" points="18 18 6 6 30 30"/>
        <rect class="cls-2" x="17" y="1.03" width="2" height="33.94" transform="translate(-7.46 18) rotate(-45)"/>
      </g>
    </g>
  </g>
</svg>