<?xml version="1.0" encoding="UTF-8"?>
<svg id="Layer_2" data-name="Layer 2" xmlns="http://www.w3.org/2000/svg" viewBox="0 0 310 64">
  <defs>
    <style>
      .cls-1 {
        fill: #fff53e;
      }

      .cls-1, .cls-2 {
        stroke-width: 0px;
      }

      .cls-2 {
        fill: #fff;
      }
    </style>
  </defs>
  <g id="Layer_17" data-name="Layer 17">
    <g>
      <path class="cls-2" d="m50.93,16.86h4.8v30.27h-4.8v-30.27Z"/>
      <path class="cls-2" d="m59.29,16.86h6.84l3.05,21.67h.09l3.05-21.67h6.84v30.27h-4.53v-22.92h-.09l-3.49,22.92h-4.01l-3.49-22.92h-.09v22.92h-4.19v-30.27Z"/>
      <path class="cls-2" d="m82.75,16.86h7.06c2.38,0,4.17.63,5.36,1.9,1.19,1.27,1.79,3.13,1.79,5.58v2.98c0,2.45-.6,4.31-1.79,5.58-1.19,1.27-2.98,1.9-5.36,1.9h-2.27v12.33h-4.8v-30.27Zm7.06,13.62c.78,0,1.37-.22,1.77-.65.39-.43.59-1.17.59-2.21v-3.59c0-1.04-.2-1.77-.59-2.21-.39-.43-.98-.65-1.77-.65h-2.27v9.3h2.27Z"/>
      <path class="cls-2" d="m99.58,16.86h4.8v25.95h7.89v4.32h-12.69v-30.27Z"/>
      <path class="cls-2" d="m114.57,16.86h13.08v4.32h-8.28v8h6.58v4.32h-6.58v9.3h8.28v4.32h-13.08v-30.27Z"/>
      <path class="cls-2" d="m138.87,45.62c-1.21-1.3-1.81-3.13-1.81-5.49v-16.26c0-2.36.6-4.2,1.81-5.49,1.21-1.3,2.96-1.95,5.25-1.95s4.05.65,5.25,1.95c1.21,1.3,1.81,3.13,1.81,5.49v3.2h-4.53v-3.5c0-1.87-.8-2.81-2.4-2.81s-2.4.94-2.4,2.81v16.91c0,1.85.8,2.77,2.4,2.77s2.4-.92,2.4-2.77v-4.63h4.53v4.28c0,2.36-.6,4.19-1.81,5.49-1.21,1.3-2.96,1.95-5.25,1.95s-4.05-.65-5.25-1.95Z"/>
      <path class="cls-2" d="m155.68,45.58c-1.25-1.33-1.87-3.2-1.87-5.62v-15.92c0-2.42.63-4.3,1.87-5.62,1.25-1.33,3.05-1.99,5.41-1.99s4.15.66,5.41,1.99c1.25,1.33,1.87,3.2,1.87,5.62v15.92c0,2.42-.63,4.3-1.87,5.62-1.25,1.33-3.05,1.99-5.41,1.99s-4.16-.66-5.41-1.99Zm7.89-5.32v-16.52c0-1.99-.83-2.98-2.48-2.98s-2.49.99-2.49,2.98v16.52c0,1.99.83,2.98,2.49,2.98s2.48-1,2.48-2.98Z"/>
      <path class="cls-2" d="m171.59,16.86h6.84l3.05,21.67h.09l3.05-21.67h6.84v30.27h-4.53v-22.92h-.09l-3.49,22.92h-4.01l-3.49-22.92h-.09v22.92h-4.19v-30.27Z"/>
      <path class="cls-2" d="m195.04,16.86h7.06c2.38,0,4.17.63,5.36,1.9,1.19,1.27,1.79,3.13,1.79,5.58v2.98c0,2.45-.6,4.31-1.79,5.58-1.19,1.27-2.98,1.9-5.36,1.9h-2.27v12.33h-4.8v-30.27Zm7.06,13.62c.78,0,1.37-.22,1.77-.65.39-.43.59-1.17.59-2.21v-3.59c0-1.04-.2-1.77-.59-2.21-.39-.43-.98-.65-1.77-.65h-2.27v9.3h2.27Z"/>
      <path class="cls-2" d="m211.87,16.86h7.11c2.47,0,4.27.57,5.41,1.71s1.7,2.89,1.7,5.25v1.86c0,3.14-1.05,5.13-3.14,5.97v.09c1.16.35,1.98,1.05,2.46,2.12.48,1.07.72,2.49.72,4.28v5.32c0,.86.03,1.56.09,2.1s.2,1.06.44,1.58h-4.88c-.17-.49-.29-.95-.35-1.38-.06-.43-.09-1.21-.09-2.33v-5.54c0-1.38-.22-2.35-.68-2.9s-1.23-.82-2.33-.82h-1.66v12.97h-4.8v-30.27Zm6.54,12.97c.96,0,1.68-.25,2.16-.74.48-.49.72-1.31.72-2.47v-2.34c0-1.09-.2-1.89-.59-2.38-.39-.49-1.01-.74-1.85-.74h-2.18v8.65h1.74Z"/>
      <path class="cls-2" d="m229.44,16.86h13.08v4.32h-8.28v8h6.58v4.32h-6.58v9.3h8.28v4.32h-13.08v-30.27Z"/>
      <path class="cls-2" d="m246.31,45.6c-1.19-1.31-1.79-3.19-1.79-5.64v-1.73h4.53v2.08c0,1.96.83,2.94,2.49,2.94.81,0,1.43-.24,1.85-.71.42-.48.63-1.25.63-2.31,0-1.27-.29-2.38-.87-3.35s-1.66-2.13-3.23-3.48c-1.98-1.73-3.36-3.29-4.14-4.69-.78-1.4-1.18-2.98-1.18-4.74,0-2.39.61-4.24,1.83-5.56,1.22-1.31,2.99-1.97,5.32-1.97s4.03.66,5.21,1.97,1.77,3.19,1.77,5.64v1.25h-4.53v-1.56c0-1.04-.2-1.79-.61-2.27-.41-.48-1-.71-1.79-.71-1.6,0-2.4.97-2.4,2.9,0,1.1.3,2.12.89,3.07.59.95,1.68,2.1,3.25,3.46,2,1.73,3.39,3.3,4.14,4.71s1.13,3.07,1.13,4.97c0,2.48-.62,4.38-1.85,5.71-1.24,1.33-3.03,1.99-5.38,1.99s-4.08-.66-5.27-1.97Z"/>
      <path class="cls-2" d="m262.53,45.6c-1.19-1.31-1.79-3.19-1.79-5.64v-1.73h4.53v2.08c0,1.96.83,2.94,2.49,2.94.81,0,1.43-.24,1.85-.71.42-.48.63-1.25.63-2.31,0-1.27-.29-2.38-.87-3.35s-1.66-2.13-3.23-3.48c-1.98-1.73-3.36-3.29-4.14-4.69-.78-1.4-1.18-2.98-1.18-4.74,0-2.39.61-4.24,1.83-5.56,1.22-1.31,2.99-1.97,5.32-1.97s4.03.66,5.21,1.97,1.77,3.19,1.77,5.64v1.25h-4.53v-1.56c0-1.04-.2-1.79-.61-2.27-.41-.48-1-.71-1.79-.71-1.6,0-2.4.97-2.4,2.9,0,1.1.3,2.12.89,3.07.59.95,1.68,2.1,3.25,3.46,2,1.73,3.39,3.3,4.14,4.71s1.13,3.07,1.13,4.97c0,2.48-.62,4.38-1.85,5.71-1.24,1.33-3.03,1.99-5.38,1.99s-4.08-.66-5.27-1.97Z"/>
      <path class="cls-2" d="m279.31,45.58c-1.25-1.33-1.87-3.2-1.87-5.62v-15.92c0-2.42.63-4.3,1.87-5.62,1.25-1.33,3.05-1.99,5.41-1.99s4.15.66,5.41,1.99c1.25,1.33,1.87,3.2,1.87,5.62v15.92c0,2.42-.63,4.3-1.87,5.62-1.25,1.33-3.05,1.99-5.41,1.99s-4.16-.66-5.41-1.99Zm7.89-5.32v-16.52c0-1.99-.83-2.98-2.48-2.98s-2.49.99-2.49,2.98v16.52c0,1.99.83,2.98,2.49,2.98s2.48-1,2.48-2.98Z"/>
      <path class="cls-2" d="m295.22,16.86h7.11c2.47,0,4.27.57,5.41,1.71s1.7,2.89,1.7,5.25v1.86c0,3.14-1.05,5.13-3.14,5.97v.09c1.16.35,1.98,1.05,2.46,2.12.48,1.07.72,2.49.72,4.28v5.32c0,.86.03,1.56.09,2.1s.2,1.06.44,1.58h-4.88c-.17-.49-.29-.95-.35-1.38-.06-.43-.09-1.21-.09-2.33v-5.54c0-1.38-.22-2.35-.68-2.9s-1.23-.82-2.33-.82h-1.66v12.97h-4.8v-30.27Zm6.54,12.97c.96,0,1.68-.25,2.16-.74.48-.49.72-1.31.72-2.47v-2.34c0-1.09-.2-1.89-.59-2.38-.39-.49-1.01-.74-1.85-.74h-2.18v8.65h1.74Z"/>
      <g>
        <polygon class="cls-1" points="47.32 5.89 28.14 .57 9.6 27.21 19.42 36.37 1.68 62.41 41.9 38.31 31 26.7 47.32 5.89"/>
        <path class="cls-2" d="m0,64l18.77-27.56-9.82-9.17L27.93,0l20.23,5.61-16.51,21.06,11.03,11.75L0,64ZM10.26,27.14l9.82,9.16L3.37,60.82l37.75-22.62-10.77-11.47L46.46,6.17,28.35,1.14,10.26,27.14Z"/>
      </g>
    </g>
  </g>
</svg>