<svg width="108" height="108" viewBox="0 0 108 108" fill="none" xmlns="http://www.w3.org/2000/svg">
<path d="M54 26.94C73.5 26.94 91.29 37.23 101.13 54C91.29 70.77 73.5 81.06 54 81.06C34.5 81.06 16.71 70.77 6.87 54C16.71 37.23 34.5 26.94 54 26.94ZM54 21C30.48 21 10.11 34.41 0 54C10.11 73.59 30.48 87 54 87C77.52 87 97.89 73.59 108 54C97.89 34.41 77.52 21 54 21Z" fill="white"/>
<path d="M54 39C62.28 39 69 45.72 69 54C69 62.28 62.28 69 54 69C45.72 69 39 62.28 39 54C39 45.72 45.72 39 54 39ZM54 33C42.39 33 33 42.39 33 54C33 65.61 42.39 75 54 75C65.61 75 75 65.61 75 54C75 42.39 65.61 33 54 33Z" fill="white"/>
<path d="M8.82007 102C8.04007 102 7.29007 101.67 6.72007 100.98C5.67007 99.72 5.76007 97.74 6.93007 96.6L97.2901 6.80999C98.4301 5.66999 100.23 5.75999 101.28 7.01999C102.33 8.27999 102.24 10.26 101.07 11.4L10.7101 101.19C10.1701 101.73 9.48007 102 8.82007 102Z" fill="white"/>
</svg>
