<svg width="30" height="31" viewBox="0 0 30 31" fill="none" xmlns="http://www.w3.org/2000/svg">
<path d="M10.4964 29.3171V22.5979L5.48135 26.2983C6.89335 27.6129 8.59749 28.6354 10.4964 29.3171ZM20.2343 29.3171C22.1332 28.6354 23.8374 27.6129 25.2494 26.2983L20.2343 22.5492V29.3171ZM1.58618 20.4069C1.73225 20.8938 1.92701 21.332 2.17046 21.8189L4.06935 20.4069H1.58618ZM26.6614 20.4069L28.5602 21.8189C28.755 21.3807 28.9498 20.8938 29.1445 20.4069H26.6614Z" fill="#2A5F9E"/>
<path d="M11.2269 18.4594H1.05078C1.19685 19.141 1.39161 19.774 1.58637 20.4069H4.06954L2.17064 21.8189C2.56016 22.6467 2.99837 23.377 3.53395 24.1073L8.54899 20.4069H10.4966V21.3807L4.79988 25.568L5.48154 26.2497L10.4966 22.598V29.3171C11.1295 29.5606 11.7625 29.7067 12.4442 29.8527V18.4594H11.2269ZM29.6803 18.4594H18.2869V29.8527C18.9686 29.7067 19.6015 29.5119 20.2345 29.3171V22.598L25.2495 26.2497C25.9312 25.6167 26.5155 24.9351 27.0997 24.2047L21.89 20.4069H25.2009L28.1709 22.598C28.317 22.3545 28.4631 22.0624 28.5604 21.8189L26.6615 20.4069H29.1447C29.3395 19.774 29.5342 19.141 29.6803 18.4594Z" fill="white"/>
<path d="M3.53394 24.1073C3.92345 24.6429 4.31297 25.1298 4.75118 25.6167L10.4966 21.4293V20.4555H8.54897L3.53394 24.1073ZM21.9386 20.4069L27.1484 24.2047C27.3432 23.9612 27.4892 23.7178 27.684 23.4743C27.7327 23.4256 27.7327 23.3769 27.7814 23.3769C27.9275 23.1335 28.1222 22.8413 28.2683 22.5979L25.2008 20.4069H21.9386Z" fill="#ED4C5C"/>
<path d="M20.2343 1.75879V8.47796L25.2494 4.77755C23.8374 3.46293 22.1332 2.44044 20.2343 1.75879ZM10.4964 1.75879C8.59749 2.44044 6.89335 3.46293 5.48135 4.77755L10.4964 8.52665V1.75879ZM29.1445 10.669C28.9985 10.1821 28.8037 9.74389 28.5602 9.257L26.6614 10.669H29.1445ZM4.06935 10.669L2.17046 9.257C1.9757 9.74389 1.78094 10.1821 1.58618 10.669H4.06935Z" fill="#2A5F9E"/>
<path d="M19.5042 12.6165H29.6316C29.4855 11.9349 29.2908 11.3019 29.096 10.6689H26.6128L28.5117 9.25694C28.1222 8.42921 27.684 7.69887 27.1484 6.96852L22.1821 10.6689H20.2345V9.69514L25.9312 5.50783L25.2495 4.82618L20.2345 8.4779V1.75873C19.6015 1.51528 18.9686 1.36921 18.2869 1.22314V12.6165H19.5042ZM1.05078 12.6165H12.4442V1.22314C11.7625 1.36921 11.1295 1.56397 10.4966 1.75873V8.4779L5.48154 4.82618C4.79988 5.45914 4.21561 6.1408 3.63133 6.87114L8.84113 10.6689H5.53023L2.56016 8.4779C2.41409 8.72135 2.26802 9.01349 2.17064 9.25694L4.06954 10.6689H1.58637C1.39161 11.3019 1.19685 11.9349 1.05078 12.6165Z" fill="white"/>
<path d="M27.1971 6.96861C26.8076 6.43302 26.4181 5.94613 25.9799 5.45923L20.2345 9.64654V10.6203H22.1821L27.1971 6.96861ZM8.79244 10.669L3.63134 6.87123C3.43658 7.11468 3.29051 7.35812 3.09575 7.60157C3.04706 7.65026 3.04706 7.69895 2.99837 7.69895C2.8523 7.9424 2.65754 8.23454 2.51147 8.47799L5.48154 10.669H8.79244Z" fill="#ED4C5C"/>
<path d="M29.6802 12.6165H18.2868V1.22317C17.3617 1.02841 16.3879 0.93103 15.3654 0.93103C14.343 0.93103 13.3692 1.02841 12.4441 1.22317V12.6165H1.05068C0.855924 13.5417 0.758545 14.5154 0.758545 15.5379C0.758545 16.5604 0.855924 17.5342 1.05068 18.4593H12.4441V29.8527C13.3692 30.0474 14.343 30.1448 15.3654 30.1448C16.3879 30.1448 17.3617 30.0474 18.2868 29.8527V18.4593H29.6802C29.875 17.5342 29.9723 16.5604 29.9723 15.5379C29.9723 14.5154 29.875 13.5417 29.6802 12.6165Z" fill="#ED4C5C"/>
</svg>
