<svg width="30" height="30" viewBox="0 0 30 30" fill="none" xmlns="http://www.w3.org/2000/svg">
<path d="M14.6069 29.2138C22.6741 29.2138 29.2138 22.6741 29.2138 14.6069C29.2138 6.53973 22.6741 0 14.6069 0C6.53973 0 0 6.53973 0 14.6069C0 22.6741 6.53973 29.2138 14.6069 29.2138Z" fill="#F5F5F5"/>
<path d="M10.4196 15.4346C11.7829 16.3597 13.6818 15.9702 14.6069 14.6069C15.532 13.2436 17.3822 12.8541 18.7942 13.7792C20.1088 14.6556 20.4983 16.3597 19.768 17.6744C21.3748 14.9477 20.6444 11.3934 17.9178 9.59189C15.1425 7.74168 11.3934 8.47203 9.54318 11.2473C9.49449 11.3447 9.4458 11.4421 9.39711 11.4908C8.71545 12.9028 9.15366 14.5582 10.4196 15.4346Z" fill="#ED4C5C"/>
<path d="M18.7942 13.7792C17.4309 12.854 15.532 13.2436 14.6069 14.6069C13.6818 15.9702 11.8316 16.3597 10.4196 15.4346C9.10493 14.5582 8.71542 12.854 9.44576 11.5394C7.79031 14.266 8.56935 17.8204 11.296 19.6219C14.0713 21.4721 17.8204 20.7418 19.6706 17.9665C19.7193 17.8691 19.768 17.7717 19.8167 17.723C20.4983 16.311 20.0601 14.6556 18.7942 13.7792Z" fill="#428BC1"/>
<path d="M2.82399 10.3709L6.18357 5.35587L5.84275 5.11242L5.50192 4.91766L2.14233 9.9327L2.48316 10.1275L2.82399 10.3709ZM3.74909 11.0039L4.08992 11.1986L7.40082 6.18359L7.10868 5.98884L6.76785 5.74539L3.40826 10.7604L3.74909 11.0039ZM7.98509 6.57311L4.6742 11.5881L5.01502 11.8316L5.35585 12.0264L8.66675 7.01132L8.32592 6.81656L7.98509 6.57311ZM22.6407 19.7193L22.9815 19.9628L24.5396 17.6257L24.1987 17.3822L23.8579 17.1875L22.2998 19.5246L22.6407 19.7193ZM26.3898 18.8429L24.8317 21.18L25.1725 21.4235L25.5134 21.6182L27.0714 19.2811L26.7306 19.0864L26.3898 18.8429ZM24.2474 20.7905L25.8055 18.4534L25.4647 18.2099L25.1238 18.0152L23.5658 20.3523L23.9066 20.547L24.2474 20.7905ZM22.4459 20.0601L22.1051 19.8654L20.547 22.2025L20.8879 22.3972L21.2287 22.6407L22.7867 20.3036L22.4459 20.0601ZM23.6632 20.8879L23.371 20.6931L21.813 23.0302L22.1051 23.225L22.4459 23.4684L24.004 21.1313L23.6632 20.8879ZM24.5883 21.5208L23.0302 23.8579L23.371 24.1014L23.7119 24.2961L25.2699 21.959L24.9291 21.7156L24.5883 21.5208ZM2.48316 19.0864L2.14233 19.2811L5.50192 24.2961L5.84275 24.1014L6.18357 23.8579L2.82399 18.8429L2.48316 19.0864ZM5.55061 20.8879L5.20978 21.1313L6.76785 23.4684L7.10868 23.225L7.40082 23.0302L5.84275 20.6931L5.55061 20.8879ZM5.01502 17.3822L4.6742 17.6257L7.98509 22.6407L8.32592 22.3972L8.66675 22.2025L5.35585 17.1875L5.01502 17.3822ZM3.40826 18.4534L4.96633 20.7905L5.30716 20.547L5.64799 20.3523L4.08992 18.0152L3.74909 18.2099L3.40826 18.4534ZM24.9291 7.49821L25.2699 7.25477L23.7119 4.91766L23.371 5.11242L23.0302 5.35587L24.5883 7.69297L24.9291 7.49821ZM22.4459 9.15366L22.7867 8.91021L21.2287 6.57311L20.8879 6.81656L20.547 7.01132L22.1051 9.34842L22.4459 9.15366ZM24.8317 8.0338L26.3898 10.3709L26.7306 10.1275L27.0714 9.9327L25.5134 7.59559L25.1725 7.79035L24.8317 8.0338ZM25.4647 11.0039L25.8055 10.7604L22.4459 5.74539L22.1051 5.98884L21.813 6.18359L25.1238 11.1986L25.4647 11.0039ZM24.1987 11.8316L24.5396 11.5881L22.9815 9.25104L22.6407 9.49449L22.2998 9.68925L23.8579 12.0264L24.1987 11.8316Z" fill="#3E4347"/>
</svg>
